<svg xmlns="http://www.w3.org/2000/svg" viewBox="0 0 512 512">
  <defs>
    <linearGradient id="bg" x1="0" y1="0" x2="1" y2="1">
      <stop offset="0" stop-color="#0a1a13"/>
      <stop offset="1" stop-color="#030806"/>
    </linearGradient>
    <linearGradient id="book" x1="0" y1="0" x2="1" y2="1">
      <stop offset="0" stop-color="#56b987"/>
      <stop offset="1" stop-color="#1f704d"/>
    </linearGradient>
  </defs>
  <rect width="512" height="512" rx="104" fill="url(#bg)"/>
  <rect x="46" y="46" width="420" height="420" rx="78" fill="none" stroke="#aebbb5" stroke-width="12" opacity=".55"/>
  <path d="M122 92h225c28 0 51 23 51 51v276H164c-39 0-70-31-70-70V120c0-15 13-28 28-28z" fill="url(#book)"/>
  <path d="M164 92v327M164 350h234" stroke="#dbe4df" stroke-width="23" stroke-linecap="round"/>
  <path d="M223 167h113M223 225h113M223 283h77" stroke="#07130f" stroke-width="20" stroke-linecap="round"/>
  <path d="M322 324c24-23 48-18 58-2-20-3-31 8-34 26-8-12-16-17-24-24z" fill="#dbe4df" opacity=".9"/>
</svg>
